<svg xmlns="http://www.w3.org/2000/svg" width="150.016" height="43.576" viewBox="0 0 150.016 43.576"><g transform="translate(0.02 0.022)"><path d="M29.406,6.607a12,12,0,0,1,.462-1.212l-.058-.058q-.71.427-1.443.808a16.72,16.72,0,0,0-12.816-.2,17,17,0,0,0,10.506,32.27,16.8,16.8,0,0,0,8.255-5.022q-2.119-3.345-4.272-6.668,2.684-.115,5.369,0,4.9,6.941,9.756,13.913-3.088.1-6.177.029-1.021-1.537-2.021-3.088a21.791,21.791,0,1,1,3.521-26.758q-2.122,1.1-4.272,2.165a17.3,17.3,0,0,0-4.849-5.051,16.5,16.5,0,0,0-1.961-1.128" fill="#1d2976" fill-rule="evenodd" opacity="0.988"/><path d="M29.406,6.607l-.462.981q-5.793,2.42-11.6,4.792,5.5-3.138,11.026-6.235.733-.381,1.443-.808l.058.058a12,12,0,0,0-.465,1.212" fill="#4374b0" fill-rule="evenodd" opacity="0.968"/><path d="M28.944,7.589q-.323.847-.693,1.674-7.241,2.957-14.432,6a18,18,0,0,1-2.425.433q2.95-1.706,5.946-3.319,5.812-2.368,11.6-4.788" fill="#4278b3" fill-rule="evenodd" opacity="0.985"/><path d="M28.251,9.263l-.4.924q-5.279,2.149-10.507,4.387-1.756.369-3.521.693,7.187-3.047,14.428-6" fill="#417bb6" fill-rule="evenodd" opacity="0.988"/><path d="M52.786,9.725q1.885.153,3.752.462a10.4,10.4,0,0,1-2.482.491q-1.565-.2-3.117-.462Z" fill="#3699ce" fill-rule="evenodd" opacity="0.918"/><path d="M27.847,10.187q-.5,1.2-1.039,2.367L19.765,15.5q.263-.729.577-1.443L20.255,14q-1.457.294-2.915.577,5.228-2.238,10.507-4.387" fill="#3f7fb9" fill-rule="evenodd" opacity="0.987"/><path d="M48.052,10.418q1.853.2,3.695.491-1.1.28-2.194.548-1.735-.244-3.464-.52Z" fill="#359ace" fill-rule="evenodd" opacity="0.919"/><path d="M43.376,11.4q-7.306,3.1-14.663,6.119,1.437-.95,2.944-1.818,3.017-1.567,6.119-2.944,1.883-.734,3.752-1.5a12,12,0,0,1,1.849.143" fill="#3990c6" fill-rule="evenodd" opacity="0.979"/><path d="M43.376,11.4q.735.1,1.443.231-9.849,4.053-19.685,8.14,1.743-1.193,3.579-2.251Q36.07,14.5,43.376,11.4" fill="#3992c8" fill-rule="evenodd" opacity="0.989"/><path d="M60.925,11.168q1.887.139,3.752.462a10.4,10.4,0,0,1-2.482.491q-1.563-.2-3.117-.462Z" fill="#3795ca" fill-rule="evenodd" opacity="0.902"/><path d="M55.442,11.572l3.579.491a21,21,0,0,1-2.222.548q-1.69-.237-3.377-.491,1.01-.288,2.02-.548" fill="#3797cc" fill-rule="evenodd" opacity="0.908"/><path d="M44.819,11.63a3.8,3.8,0,0,1,.924.115q-.832.23-1.674.433a10,10,0,0,0,1.212.2q-14.7,6.192-29.441,12.3a8,8,0,0,1,.519-1.212L23.4,20.522a1.1,1.1,0,0,1-.173.375l.058.029q.9-.622,1.847-1.155,9.837-4.088,19.685-8.141" fill="#3894c9" fill-rule="evenodd" opacity="0.993"/><path d="M50.361,12.322Q32.579,19.789,14.743,27.158q.528-1.257,1.1-2.482,14.746-6.1,29.441-12.3.973.125,1.934.289l2.02-.52q.558.1,1.123.177" fill="#3697cc" fill-rule="evenodd" opacity="0.997"/><path d="M50.361,12.323q.952.122,1.9.231Q33.258,20.507,14.223,28.429l.52-1.27Q32.578,19.79,50.361,12.323" fill="#359bcf" fill-rule="evenodd" opacity="0.998"/><path d="M52.266,12.553a4.4,4.4,0,0,1,.693.144q-.917.258-1.847.462,1.587.221,3.175.433.987-.189,1.963-.433a2.8,2.8,0,0,1,1.039.087l-3.695,1.616a49.1,49.1,0,0,0-16.683,5.109q-2.813,1.478-5.484,3.175-1.924,1.3-3.868,2.569-7.408,3.011-14.778,6.119.672-1.73,1.443-3.406,19.034-7.922,38.042-15.875" fill="#349ed2" fill-rule="evenodd" opacity="0.986"/><path d="M26.808,12.553a4.4,4.4,0,0,1-.231.635q-3.561,1.448-7.1,2.944a2.2,2.2,0,0,1,.289-.635Z" fill="#3e82bc" fill-rule="evenodd" opacity="0.99"/><path d="M26.577,13.188q-.585,1.372-1.212,2.713l-7.043,2.887q.562-1.341,1.155-2.656,3.54-1.5,7.1-2.944" fill="#3d86be" fill-rule="evenodd" opacity="0.989"/><path d="M57.289,13.246q2.171.224,4.33.548-4,.655-8.024,1.068Z" fill="#32a3d5" fill-rule="evenodd" opacity="0.929"/><path d="M25.365,15.9q-.558,1.463-1.212,2.886L17.11,21.674q.572-1.458,1.212-2.886Z" fill="#3a8cc3" fill-rule="evenodd" opacity="0.989"/><path d="M43.146,18.384a.15.15,0,0,1,.144.115,22.1,22.1,0,0,1-1.328,11.43q-.267.619-.577,1.212-1.646-2.485-3.2-5.022a17.3,17.3,0,0,0,.52-6q2.251-.8,4.441-1.735" fill="#1d2876" fill-rule="evenodd" opacity="0.983"/><path d="M24.152,18.788q-.343.887-.75,1.732l-7.043,2.944a17,17,0,0,1,.751-1.79Z" fill="#3991c7" fill-rule="evenodd" opacity="0.99"/><path d="M27.558,25.715q-1.01.678-2.078,1.27L12.549,32.354a1.1,1.1,0,0,1,.231-.52q7.369-3.107,14.778-6.119" fill="#33a2d5" fill-rule="evenodd" opacity="0.987"/><path d="M25.48,26.985q-2.42,1.47-4.907,2.858l-8.948,4.82-.058-.058q.471-1.144.981-2.251Z" fill="#32a3d5" fill-rule="evenodd" opacity="0.961"/><path d="M90.02,10.071q1.358.419,2.684.924a5.3,5.3,0,0,1-.779,1.328,31,31,0,0,0,3.291.029l.722-.722,1.7,1.357a.16.16,0,0,1,.029.2l-.548.9q-1.269.043-2.54.029a13,13,0,0,1-.173,1.616,3.3,3.3,0,0,0,.866-.058q.315-.417.664-.808l1.9,1.559q.043-2.4.029-4.791H100.7v.52q1.011.014,2.021-.029a9,9,0,0,1,.837-.953q1.435.9,2.858,1.818a10.5,10.5,0,0,1-.837,1.01q-.043,3.117-.029,6.234h-2.771v-.577H100.7v.577H97.871q.015-1.732-.029-3.464-.264.369-.549.722l-3.464.058q-.115.087,0,.173,1.311.364,2.6.808a1.6,1.6,0,0,1,.664.375.86.86,0,0,1,.058.577,13,13,0,0,1-.433,1.616q1.847.1,3.695.029a6.3,6.3,0,0,1,1.01-1.01q1.565.919,3.088,1.905-.431.532-.895,1.039-.043,3.521-.029,7.043h-2.944V29.061H93.6V30.1h-3q.029-4.561-.058-9.121a12.4,12.4,0,0,1-2.858,1.155,12,12,0,0,1-.722-1.183,10.7,10.7,0,0,0,3.2-2.338,6.5,6.5,0,0,0,.722-1.039q-1.586-.087-3.175-.058-.141-.889-.347-1.761,2.135-.043,4.272-.029a9,9,0,0,0,.115-1.616q-.722-.014-1.443.029a16.6,16.6,0,0,1-1.818,1.472,10,10,0,0,1-1.01-.808,12.8,12.8,0,0,0,2.542-4.732m10.68,3.868h2.078v3.925H100.7Zm-7.851,5.08a28,28,0,0,1,2.713,2.107q-.981.043-1.963.029v-.4q-1.357.014-2.713-.029a5.84,5.84,0,0,0,1.963-1.707m.75,3.925h7.043v1.27H93.6Zm0,3.06h7.043v1.212H93.6Z" fill="#221814" fill-rule="evenodd" opacity="0.977"/><path d="M80.844,10.649a.18.18,0,0,1,.173.058l1.616,2.829a.2.2,0,0,1-.058.087q-2.9.5-5.831.722v4.5q2.223.014,4.445-.029.565-.709,1.183-1.357,1.435,1.071,2.858,2.165-.276.6-.577,1.183-3.954.087-7.909.058v9.294H73.453V20.865q-3.665.014-7.331-.029-.333-.982-.577-1.992h7.909V14.63q-2.853.227-5.715.289-.131-.724-.288-1.443a95,95,0,0,0,11.43-2.223,19,19,0,0,0,1.963-.6" fill="#221814" fill-rule="evenodd" opacity="0.983"/><path d="M136.434,10.648q1.28.712,2.54,1.472a.7.7,0,0,1,.289.26q-.378.508-.722,1.039-.028,7.476-.058,14.951a1.83,1.83,0,0,1-1.068,1.068,5.7,5.7,0,0,1-1.963.375,1.345,1.345,0,0,0-.981-1.241,3.5,3.5,0,0,0-.75-.144,10,10,0,0,1-.087-1.328,8,8,0,0,0,1.76.087.72.72,0,0,0,.433-.26q.127-2.361.087-4.734h-1.79a13.7,13.7,0,0,1-2.684,7.793,7,7,0,0,1-1.241-.548,15.5,15.5,0,0,0,1.241-5.34q.125-6.464.086-12.931h2.713v.577q.751.014,1.5-.029a11,11,0,0,0,.695-1.067m-2.194,2.944h1.674v2.367H134.24Zm0,4.214h1.674v2.54H134.24Z" fill="#221814" fill-rule="evenodd" opacity="0.987"/><path d="M146.478,10.822q1.222.683,2.425,1.414a1.3,1.3,0,0,1,.346.289q-.292.453-.606.9-.16,1.468-.231,2.944a1.99,1.99,0,0,1-1.472,1.53,8.2,8.2,0,0,1-1.847.2,1,1,0,0,0-.809-1.126,6,6,0,0,1-.779-.087q-.093-.662-.144-1.328a11.5,11.5,0,0,0,1.79.029q.568-.041.4-.577.069-.706.115-1.414H142.26v5.253q1.905.014,3.81-.029l.78-.779q1.341.873,2.655,1.79a5.7,5.7,0,0,1-.866,1.1,12.9,12.9,0,0,1-1.472,4.445,6.7,6.7,0,0,0,1.443.837q.7.267,1.386.548a24.6,24.6,0,0,0-1.847,3.06,13.2,13.2,0,0,1-2.54-2.136,14,14,0,0,1-2.742,2.251,3.7,3.7,0,0,1-.577-.52,4,4,0,0,0-.029.693h-2.71V11.054h2.713v.693q1.7.014,3.406-.029.39-.463.808-.9m-4.214,9.929h.347a13.7,13.7,0,0,0,1.616,5.167,11.8,11.8,0,0,1-1.934,2.453q-.042-3.81-.029-7.62m2.021,0H145.9a15.5,15.5,0,0,1-.549,2.656,8.9,8.9,0,0,1-1.069-2.656Z" fill="#221814" fill-rule="evenodd" opacity="0.98"/><path d="M123.56,11.226q1.227,1.1,2.482,2.165l-.577.924q-7.043.043-14.085.029-.258-.975-.462-1.963,5.773.014,11.546-.029.566-.552,1.1-1.126" fill="#221814" fill-rule="evenodd" opacity="0.97"/><path d="M125.754,16.364a34,34,0,0,1,2.8,2.078,9,9,0,0,1-.549,1.241l-10.448.058,1.674.9a.116.116,0,0,1,.029.173,47,47,0,0,1-4.243,4.965q3.553.09,7.1-.144l-1.559-2.367a13,13,0,0,1,1.126-.953,33,33,0,0,1,3.723,2.8q.624.594,1.183,1.241a1.7,1.7,0,0,1,0,.635A7.7,7.7,0,0,1,125,29.844a.564.564,0,0,1-.78-.2L123.1,27.508q-6.158,1.045-12.354,1.616-.283-1.528-.491-3.06a4.07,4.07,0,0,0,2.367-1.328,18.7,18.7,0,0,0,2.973-4.993l-6.35-.058q-.322-.956-.577-1.934,7.966.014,15.933-.029a13,13,0,0,0,1.156-1.358" fill="#221814" fill-rule="evenodd" opacity="0.978"/><path d="M68.66,32.47q2.721-.121,2.338,2.6a2.6,2.6,0,0,1-.375.808l.4.577-.4.346a6,6,0,0,0-.491-.52,3,3,0,0,1-1.7.087,1.89,1.89,0,0,1-1.155-1.9A1.94,1.94,0,0,1,68.66,32.47m.173.577a1.22,1.22,0,0,1,1.53.981,2.3,2.3,0,0,1-.173,1.328,4.5,4.5,0,0,0-.577-.635,4,4,0,0,0-.375.4q.275.29.52.606a1.225,1.225,0,0,1-1.588-.317,1.8,1.8,0,0,1,.26-2.165Z" fill="#221814" fill-rule="evenodd" opacity="0.914"/><path d="M73.222,32.527h.635V36.4h-.635Z" fill="#221814" fill-rule="evenodd" opacity="0.922"/><path d="M77.205,32.527a2.5,2.5,0,0,1,.75.058q.772,1.889,1.443,3.81h-.693a5.6,5.6,0,0,0-.346-.952,10.5,10.5,0,0,0-1.559,0q-.164.449-.346.9a1.07,1.07,0,0,1-.693,0q.757-1.9,1.444-3.811m.346.75q.341.776.635,1.587a6.3,6.3,0,0,1-1.212,0,11,11,0,0,0,.578-1.587Z" fill="#221814" fill-rule="evenodd" opacity="0.918"/><path d="M81.361,32.523a2,2,0,0,1,.664.058q.945,1.341,1.847,2.713.043-1.385.029-2.771h.635v3.868a3.5,3.5,0,0,1-.635-.029l-1.876-2.684q-.043,1.356-.029,2.713h-.635Z" fill="#221814" fill-rule="evenodd" opacity="0.931"/><path d="M93.542,32.527h2.886a3,3,0,0,1-.029.577l-2.165,2.742q1.155.043,2.309.029v.52H93.368a3,3,0,0,1,.029-.577q1.075-1.312,2.107-2.656a17,17,0,0,0-1.963-.058Z" fill="#221814" fill-rule="evenodd" opacity="0.917"/><path d="M98.622,32.527h.635v1.616h1.9V32.527h.635V36.4h-.635V34.721h-1.9V36.4h-.635Z" fill="#221814" fill-rule="evenodd" opacity="0.925"/><path d="M104.106,32.527h.635V36.4h-.635Z" fill="#221814" fill-rule="evenodd" opacity="0.922"/><path d="M113.458,32.585a1.9,1.9,0,0,1,.808-.029q.5.845,1.068,1.645.522-.8,1.01-1.616a1.45,1.45,0,0,1,.808,0q-.753,1.114-1.472,2.251-.044.778-.029,1.559h-.635q.015-.751-.029-1.5-.745-1.176-1.529-2.31" fill="#221814" fill-rule="evenodd" opacity="0.906"/><path d="M119.115,32.527h.635q-.015,1.385.029,2.771a.884.884,0,0,0,.895.635.87.87,0,0,0,.953-.693q.043-1.356.029-2.713h.635a29,29,0,0,1-.086,3.06,1.41,1.41,0,0,1-1.5.866,1.37,1.37,0,0,1-1.5-.808,30,30,0,0,1-.09-3.118" fill="#221814" fill-rule="evenodd" opacity="0.922"/><path d="M124.6,32.528a3.5,3.5,0,0,1,.635.029l1.876,2.684q.043-1.356.029-2.713h.635V36.4a2,2,0,0,1-.664-.058q-.9-1.372-1.847-2.713-.044,1.386-.029,2.771H124.6Z" fill="#221814" fill-rule="evenodd" opacity="0.931"/><path d="M136.838,32.527h2.656V33.1h-2.021v1.039h1.9v.577h-1.9v1.674h-.635Z" fill="#221814" fill-rule="evenodd" opacity="0.904"/><path d="M141.572,32.527h.635q-.014,1.357.029,2.713a.854.854,0,0,0,.924.693.9.9,0,0,0,.924-.635q.043-1.385.029-2.771h.635a30,30,0,0,1-.087,3.117,1.37,1.37,0,0,1-1.5.808,1.35,1.35,0,0,1-1.5-.866,29,29,0,0,1-.089-3.059" fill="#221814" fill-rule="evenodd" opacity="0.921"/></g></svg>